<?xml version="1.0" encoding="utf-8"?>
<!-- Generator: Adobe Illustrator 16.0.0, SVG Export Plug-In . SVG Version: 6.00 Build 0)  -->
<!DOCTYPE svg PUBLIC "-//W3C//DTD SVG 1.1//EN" "http://www.w3.org/Graphics/SVG/1.1/DTD/svg11.dtd">
<svg version="1.1" id="Шар_1" xmlns="http://www.w3.org/2000/svg" xmlns:xlink="http://www.w3.org/1999/xlink" x="0px" y="0px"
	 width="128px" height="132.008px" viewBox="0 0 128 132.008" enable-background="new 0 0 128 132.008" xml:space="preserve">
<g>
	<g>
		<g>
			<g>
				<path fill="#2C2C2C" d="M99.063,102.243h-4.125c-1.654,0-3-1.346-3-3V88.957c0-1.654,1.346-3,3-3h4.125c1.654,0,3,1.346,3,3
					v10.286C102.063,100.897,100.717,102.243,99.063,102.243z M95.938,98.243h2.125v-8.286h-2.125V98.243z"/>
			</g>
		</g>
	</g>
	<g>
		<g>
			<g>
				<path fill="#2C2C2C" d="M97,90.008c-1.104,0-2-0.896-2-2v-86c0-1.104,0.896-2,2-2s2,0.896,2,2v86
					C99,89.112,98.104,90.008,97,90.008z"/>
			</g>
		</g>
	</g>
	<g>
		<g>
			<g>
				<path fill="#2C2C2C" d="M117.5,120.008h-4V6c0-1.103-0.897-2-2-2h-95c-1.103,0-2,0.897-2,2v114.008h-4V6c0-3.309,2.691-6,6-6h95
					c3.309,0,6,2.691,6,6V120.008z"/>
			</g>
		</g>
	</g>
	<g>
		<g>
			<g>
				<path fill="#2C2C2C" d="M126,123.008H2c-1.104,0-2-0.896-2-2s0.896-2,2-2h124c1.104,0,2,0.896,2,2S127.104,123.008,126,123.008z
					"/>
			</g>
		</g>
	</g>
	<g>
		<g>
			<g>
				<path fill="#2C2C2C" d="M119,132.008H9c-3.309,0-6-2.691-6-6v-4h4v4c0,1.103,0.897,2,2,2h110c1.103,0,2-0.897,2-2v-4h4v4
					C125,129.316,122.309,132.008,119,132.008z"/>
			</g>
		</g>
	</g>
	<g>
		<g>
			<g>
				<path fill="#2C2C2C" stroke="#000000" stroke-width="4" stroke-miterlimit="10" d="M106.5,10.107"/>
			</g>
		</g>
	</g>
	<g>
		<g>
			<g>
				<path fill="#2C2C2C" d="M105.5,114.109h-83c-1.654,0-3-1.346-3-3V71.084h4v39.025h81V71.084h4v40.025
					C108.5,112.764,107.154,114.109,105.5,114.109z"/>
			</g>
		</g>
	</g>
	<g>
		<g>
			<g>
				<rect x="13.439" y="69.008" fill="#2C2C2C" width="101.121" height="4"/>
			</g>
		</g>
	</g>
	<g>
		<g>
			<g>
				<g>
					<path fill="#2C2C2C" d="M82.439,43.008h-6c-1.104,0-2-0.896-2-2s0.896-2,2-2h6c1.104,0,2,0.896,2,2
						S83.544,43.008,82.439,43.008z"/>
				</g>
			</g>
		</g>
		<g>
			<g>
				<g>
					<path fill="#2C2C2C" d="M66.439,43.008h-14c-1.104,0-2-0.896-2-2s0.896-2,2-2h14c1.104,0,2,0.896,2,2
						S67.544,43.008,66.439,43.008z"/>
				</g>
			</g>
		</g>
		<g>
			<g>
				<g>
					<path fill="#2C2C2C" d="M42.439,43.008h-20c-1.104,0-2-0.896-2-2s0.896-2,2-2h20c1.104,0,2,0.896,2,2
						S43.544,43.008,42.439,43.008z"/>
				</g>
			</g>
		</g>
	</g>
	<g>
		<g>
			<g>
				<g>
					<path fill="#2C2C2C" d="M51.439,63.008h-6c-1.104,0-2-0.896-2-2s0.896-2,2-2h6c1.104,0,2,0.896,2,2
						S52.544,63.008,51.439,63.008z"/>
				</g>
			</g>
		</g>
		<g>
			<g>
				<g>
					<path fill="#2C2C2C" d="M75.439,63.008h-14c-1.104,0-2-0.896-2-2s0.896-2,2-2h14c1.104,0,2,0.896,2,2
						S76.544,63.008,75.439,63.008z"/>
				</g>
			</g>
		</g>
		<g>
			<g>
				<g>
					<path fill="#2C2C2C" d="M105.439,63.008h-20c-1.104,0-2-0.896-2-2s0.896-2,2-2h20c1.104,0,2,0.896,2,2
						S106.544,63.008,105.439,63.008z"/>
				</g>
			</g>
		</g>
	</g>
	<g>
		<g>
			<g>
				<rect x="13.439" y="49.008" fill="#2C2C2C" width="101.121" height="4"/>
			</g>
		</g>
	</g>
	<g>
		<g>
			<g>
				<rect x="13.439" y="29.008" fill="#2C2C2C" width="101.121" height="4"/>
			</g>
		</g>
	</g>
</g>
</svg>
