<?xml version="1.0" encoding="utf-8"?>
<!-- Generator: Adobe Illustrator 16.0.0, SVG Export Plug-In . SVG Version: 6.00 Build 0)  -->
<!DOCTYPE svg PUBLIC "-//W3C//DTD SVG 1.1//EN" "http://www.w3.org/Graphics/SVG/1.1/DTD/svg11.dtd">
<svg version="1.1" id="Шар_1" xmlns="http://www.w3.org/2000/svg" xmlns:xlink="http://www.w3.org/1999/xlink" x="0px" y="0px"
	 width="131.063px" height="132.193px" viewBox="0 0 131.063 132.193" enable-background="new 0 0 131.063 132.193"
	 xml:space="preserve">
<g>
	<g>
		<g>
			<rect x="124" y="10.179" fill="#2C2C2C" width="4" height="71.015"/>
		</g>
	</g>
	<g>
		<g>
			<path fill="#2C2C2C" stroke="#000000" stroke-width="4" stroke-linecap="round" stroke-miterlimit="10" d="M106.5,111.601"/>
		</g>
	</g>
	<g>
		<g>
			<path fill="#2C2C2C" stroke="#000000" stroke-width="4" stroke-linecap="round" stroke-miterlimit="10" d="M21.5,111.601"/>
		</g>
	</g>
	<g>
		<g>
			<g>
				<rect x="10.5" y="11.192" fill="#2C2C2C" width="4" height="109.001"/>
			</g>
		</g>
	</g>
	<g>
		<g>
			<g>
				<rect x="113.5" y="11.192" fill="#2C2C2C" width="4" height="109.001"/>
			</g>
		</g>
	</g>
	<g>
		<g>
			<g>
				<path fill="#2C2C2C" d="M126,123.193H2c-1.104,0-2-0.896-2-2s0.896-2,2-2h124c1.104,0,2,0.896,2,2S127.104,123.193,126,123.193z
					"/>
			</g>
		</g>
	</g>
	<g>
		<g>
			<g>
				<path fill="#2C2C2C" d="M119,132.193H9c-3.309,0-6-2.691-6-6v-4h4v4c0,1.103,0.897,2,2,2h110c1.103,0,2-0.897,2-2v-4h4v4
					C125,129.502,122.309,132.193,119,132.193z"/>
			</g>
		</g>
	</g>
	<g>
		<g>
			<g>
				<path fill="#2C2C2C" stroke="#000000" stroke-width="4" stroke-miterlimit="10" d="M106.5,10.293"/>
			</g>
		</g>
	</g>
	<g>
		<g>
			<g>
				<path fill="#2C2C2C" d="M105.5,114.296h-83c-1.654,0-3-1.346-3-3v-39h4v38h81v-38h4v39
					C108.5,112.95,107.154,114.296,105.5,114.296z"/>
			</g>
		</g>
	</g>
	<g>
		<g>
			<g>
				<path fill="#2C2C2C" d="M128.063,93.193h-4.125c-1.654,0-3-1.346-3-3V79.908c0-1.654,1.346-3,3-3h4.125c1.654,0,3,1.346,3,3
					v10.285C131.063,91.848,129.717,93.193,128.063,93.193z M124.938,89.193h2.125v-8.285h-2.125V89.193z"/>
			</g>
		</g>
	</g>
	<g>
		<g>
			<g>
				<rect x="13.439" y="69.193" fill="#2C2C2C" width="101.121" height="4"/>
			</g>
		</g>
	</g>
	<g>
		<g>
			<g>
				<rect x="13.439" y="59.193" fill="#2C2C2C" width="101.121" height="4"/>
			</g>
		</g>
	</g>
	<g>
		<g>
			<g>
				<rect x="13.439" y="49.193" fill="#2C2C2C" width="101.121" height="4"/>
			</g>
		</g>
	</g>
	<g>
		<g>
			<g>
				<rect x="13.439" y="39.193" fill="#2C2C2C" width="101.121" height="4"/>
			</g>
		</g>
	</g>
	<g>
		<g>
			<g>
				<rect x="13.439" y="29.193" fill="#2C2C2C" width="101.121" height="4"/>
			</g>
		</g>
	</g>
	<g>
		<g>
			<g>
				<rect x="13.439" y="20.193" fill="#2C2C2C" width="101.121" height="4"/>
			</g>
		</g>
	</g>
	<g>
		<g>
			<g>
				<path fill="#2C2C2C" d="M128,12h-4V6.444C124,5.119,123.084,4,122,4H6C4.916,4,4,5.119,4,6.444V12H0V6.444C0,2.891,2.691,0,6,0
					h116c3.309,0,6,2.891,6,6.444V12z"/>
			</g>
		</g>
	</g>
	<g>
		<g>
			<g>
				<path fill="#2C2C2C" d="M126,14H2c-1.104,0-2-0.896-2-2s0.896-2,2-2h124c1.104,0,2,0.896,2,2S127.104,14,126,14z"/>
			</g>
		</g>
	</g>
</g>
</svg>
