<?xml version="1.0" encoding="utf-8"?>
<!-- Generator: Adobe Illustrator 16.0.0, SVG Export Plug-In . SVG Version: 6.00 Build 0)  -->
<!DOCTYPE svg PUBLIC "-//W3C//DTD SVG 1.1//EN" "http://www.w3.org/Graphics/SVG/1.1/DTD/svg11.dtd">
<svg version="1.1" id="Шар_1" xmlns="http://www.w3.org/2000/svg" xmlns:xlink="http://www.w3.org/1999/xlink" x="0px" y="0px"
	 width="134.004px" height="132px" viewBox="0 0 134.004 132" enable-background="new 0 0 134.004 132" xml:space="preserve">
<g>
	<g>
		<g>
			<path fill="#2C2C2C" d="M130.004,93h-2c-2.206,0-4-1.794-4-4V12h4v77h2V8h4v81C134.004,91.206,132.21,93,130.004,93z"/>
		</g>
	</g>
	<g>
		<g>
			<rect x="12.504" y="11" fill="#2C2C2C" width="4" height="109"/>
		</g>
	</g>
	<g>
		<g>
			<path fill="#2C2C2C" d="M130.008,123h-12.504c-1.104,0-2-0.896-2-2s0.896-2,2-2h12.504c1.104,0,2,0.896,2,2
				S131.112,123,130.008,123z"/>
		</g>
	</g>
	<g>
		<g>
			<path fill="#2C2C2C" d="M57.019,123H2c-1.104,0-2-0.896-2-2s0.896-2,2-2h55.019c1.104,0,2,0.896,2,2S58.124,123,57.019,123z"/>
		</g>
	</g>
	<g>
		<g>
			<path fill="#2C2C2C" d="M123.004,132h-114c-3.309,0-6-2.691-6-6v-4h4v4c0,1.103,0.897,2,2,2h114c1.103,0,2-0.897,2-2v-4h4v4
				C129.004,129.309,126.313,132,123.004,132z"/>
		</g>
	</g>
	<g>
		<g>
			<path fill="#2C2C2C" d="M134.004,12h-4V6.444c0-1.325-0.916-2.444-2-2.444h-120c-1.084,0-2,1.119-2,2.444V12h-4V6.444
				c0-3.553,2.691-6.444,6-6.444h120c3.309,0,6,2.891,6,6.444V12z"/>
		</g>
	</g>
	<g>
		<g>
			<path fill="#2C2C2C" d="M132.004,14h-128c-1.104,0-2-0.896-2-2s0.896-2,2-2h128c1.104,0,2,0.896,2,2S133.108,14,132.004,14z"/>
		</g>
	</g>
	<g>
		<g>
			<path fill="#2C2C2C" stroke="#000000" stroke-width="4" stroke-miterlimit="10" d="M108.504,10.099"/>
		</g>
	</g>
	<g>
		<g>
			<path fill="#2C2C2C" d="M24.356,114.073c-0.727,0-1.419-0.285-1.951-0.807c-0.573-0.561-0.901-1.354-0.901-2.177v-90
				c0-1.654,1.288-3,2.872-3h33.128v4h-32v87.962l1.862-0.035c0.484-0.011,1.29-0.018,1.781-0.018h27.484v4H29.147
				c-0.467,0-1.231,0.007-1.699,0.017l-3.036,0.058C24.394,114.073,24.375,114.073,24.356,114.073z"/>
		</g>
	</g>
	<g>
		<rect x="55.504" y="10.099" fill="#2C2C2C" width="4" height="120.087"/>
	</g>
	<g>
		<rect x="65.504" y="10.099" fill="#2C2C2C" width="4" height="120.087"/>
	</g>
	<g>
		<rect x="75.504" y="10.099" fill="#2C2C2C" width="4" height="120.087"/>
	</g>
	<g>
		<rect x="85.504" y="10.099" fill="#2C2C2C" width="4" height="120.087"/>
	</g>
	<g>
		<rect x="95.504" y="10.099" fill="#2C2C2C" width="4" height="120.087"/>
	</g>
	<g>
		<rect x="105.504" y="10.099" fill="#2C2C2C" width="4" height="120.087"/>
	</g>
	<g>
		<rect x="115.504" y="10.099" fill="#2C2C2C" width="4" height="120.087"/>
	</g>
</g>
</svg>
