<?xml version="1.0" encoding="utf-8"?>
<!-- Generator: Adobe Illustrator 16.0.0, SVG Export Plug-In . SVG Version: 6.00 Build 0)  -->
<!DOCTYPE svg PUBLIC "-//W3C//DTD SVG 1.1//EN" "http://www.w3.org/Graphics/SVG/1.1/DTD/svg11.dtd">
<svg version="1.1" id="Шар_1" xmlns="http://www.w3.org/2000/svg" xmlns:xlink="http://www.w3.org/1999/xlink" x="0px" y="0px"
	 width="128px" height="132.008px" viewBox="0 0 128 132.008" enable-background="new 0 0 128 132.008" xml:space="preserve">
<g>
	<g>
		<g>
			<rect x="92.537" y="100.084" fill="#2C2C2C" width="4" height="4"/>
		</g>
		<g>
			<rect x="72.537" y="100.084" fill="#2C2C2C" width="4" height="4"/>
		</g>
		<g>
			<rect x="52.537" y="100.084" fill="#2C2C2C" width="4" height="4"/>
		</g>
		<g>
			<rect x="32.537" y="100.084" fill="#2C2C2C" width="4" height="4"/>
		</g>
	</g>
	<g>
		<g>
			<rect x="82.537" y="90.084" fill="#2C2C2C" width="4" height="4"/>
		</g>
		<g>
			<rect x="62.537" y="90.084" fill="#2C2C2C" width="4" height="4"/>
		</g>
		<g>
			<rect x="42.537" y="90.084" fill="#2C2C2C" width="4" height="4"/>
		</g>
		<g>
			<rect x="92.537" y="80.084" fill="#2C2C2C" width="4" height="4"/>
		</g>
		<g>
			<rect x="72.537" y="80.084" fill="#2C2C2C" width="4" height="4"/>
		</g>
		<g>
			<rect x="52.537" y="80.084" fill="#2C2C2C" width="4" height="4"/>
		</g>
		<g>
			<rect x="32.537" y="80.084" fill="#2C2C2C" width="4" height="4"/>
		</g>
	</g>
	<g>
		<g>
			<rect x="82.537" y="70.084" fill="#2C2C2C" width="4" height="4"/>
		</g>
		<g>
			<rect x="62.537" y="70.084" fill="#2C2C2C" width="4" height="4"/>
		</g>
		<g>
			<rect x="42.537" y="70.084" fill="#2C2C2C" width="4" height="4"/>
		</g>
		<g>
			<rect x="92.537" y="60.084" fill="#2C2C2C" width="4" height="4"/>
		</g>
		<g>
			<rect x="72.537" y="60.084" fill="#2C2C2C" width="4" height="4"/>
		</g>
		<g>
			<rect x="52.537" y="60.084" fill="#2C2C2C" width="4" height="4"/>
		</g>
		<g>
			<rect x="32.537" y="60.084" fill="#2C2C2C" width="4" height="4"/>
		</g>
	</g>
	<g>
		<g>
			<rect x="82.537" y="50.084" fill="#2C2C2C" width="4" height="4"/>
		</g>
		<g>
			<rect x="62.537" y="50.084" fill="#2C2C2C" width="4" height="4"/>
		</g>
		<g>
			<rect x="42.537" y="50.084" fill="#2C2C2C" width="4" height="4"/>
		</g>
		<g>
			<rect x="92.537" y="40.084" fill="#2C2C2C" width="4" height="4"/>
		</g>
		<g>
			<rect x="72.537" y="40.084" fill="#2C2C2C" width="4" height="4"/>
		</g>
		<g>
			<rect x="52.537" y="40.084" fill="#2C2C2C" width="4" height="4"/>
		</g>
		<g>
			<rect x="32.537" y="40.084" fill="#2C2C2C" width="4" height="4"/>
		</g>
	</g>
	<g>
		<g>
			<rect x="82.537" y="30.084" fill="#2C2C2C" width="4" height="4"/>
		</g>
		<g>
			<rect x="62.537" y="30.084" fill="#2C2C2C" width="4" height="4"/>
		</g>
		<g>
			<rect x="42.537" y="30.084" fill="#2C2C2C" width="4" height="4"/>
		</g>
		<g>
			<rect x="92.537" y="20.084" fill="#2C2C2C" width="4" height="4"/>
		</g>
		<g>
			<rect x="72.537" y="20.084" fill="#2C2C2C" width="4" height="4"/>
		</g>
		<g>
			<rect x="52.537" y="20.084" fill="#2C2C2C" width="4" height="4"/>
		</g>
		<g>
			<rect x="32.537" y="20.084" fill="#2C2C2C" width="4" height="4"/>
		</g>
	</g>
	<g>
		<path fill="#2C2C2C" d="M117.5,120.008h-4V6c0-1.103-0.897-2-2-2h-95c-1.103,0-2,0.897-2,2v114.008h-4V6c0-3.309,2.691-6,6-6h95
			c3.309,0,6,2.691,6,6V120.008z"/>
	</g>
	<g>
		<path fill="#2C2C2C" d="M126,123.008H2c-1.104,0-2-0.896-2-2s0.896-2,2-2h124c1.104,0,2,0.896,2,2S127.104,123.008,126,123.008z"
			/>
	</g>
	<g>
		<path fill="#2C2C2C" d="M119,132.008H9c-3.309,0-6-2.691-6-6v-4h4v4c0,1.103,0.897,2,2,2h110c1.103,0,2-0.897,2-2v-4h4v4
			C125,129.316,122.309,132.008,119,132.008z"/>
	</g>
	<g>
		<path fill="#2C2C2C" stroke="#000000" stroke-width="4" stroke-miterlimit="10" d="M106.5,10.107"/>
	</g>
	<g>
		<path fill="#2C2C2C" d="M105.5,114.109h-83c-1.654,0-3-1.346-3-3V12.084c0-1.654,1.346-3,3-3h83c1.654,0,3,1.346,3,3v99.025
			C108.5,112.764,107.154,114.109,105.5,114.109z M23.5,110.109h81V13.084h-81V110.109z"/>
	</g>
</g>
</svg>
