<?xml version="1.0" encoding="utf-8"?>
<!-- Generator: Adobe Illustrator 16.0.0, SVG Export Plug-In . SVG Version: 6.00 Build 0)  -->
<!DOCTYPE svg PUBLIC "-//W3C//DTD SVG 1.1//EN" "http://www.w3.org/Graphics/SVG/1.1/DTD/svg11.dtd">
<svg version="1.1" id="Шар_1" xmlns="http://www.w3.org/2000/svg" xmlns:xlink="http://www.w3.org/1999/xlink" x="0px" y="0px"
	 width="130.295px" height="132.008px" viewBox="0 0 130.295 132.008" enable-background="new 0 0 130.295 132.008"
	 xml:space="preserve">
<g>
	<g>
		<path fill="#2C2C2C" d="M106.5,113.415h-85c-1.104,0-2-0.896-2-2s0.896-2,2-2h85c1.104,0,2,0.896,2,2
			S107.604,113.415,106.5,113.415z"/>
	</g>
	<g>
		<path fill="#2C2C2C" d="M118,120.008h-4V53.5C114,26.206,91.794,4,64.5,4h-1C36.206,4,14,26.206,14,53.5v66.508h-4V53.5
			C10,24,34,0,63.5,0h1C94,0,118,24,118,53.5V120.008z"/>
	</g>
	<g>
		<path fill="#2C2C2C" d="M126,123.008H2c-1.104,0-2-0.896-2-2s0.896-2,2-2h124c1.104,0,2,0.896,2,2S127.104,123.008,126,123.008z"
			/>
	</g>
	<g>
		<path fill="#2C2C2C" d="M119,132.008H9c-3.309,0-6-2.691-6-6v-4h4v4c0,1.103,0.897,2,2,2h110c1.103,0,2-0.897,2-2v-4h4v4
			C125,129.316,122.309,132.008,119,132.008z"/>
	</g>
	<g>
		<path fill="#2C2C2C" stroke="#000000" stroke-width="4" stroke-miterlimit="10" d="M106.5,10.107"/>
	</g>
	<g>
		<path fill="#2C2C2C" d="M108.5,112.109h-4v-57.5c0-22.332-18.168-40.5-40.5-40.5c-22.332,0-40.5,18.168-40.5,40.5v57.5h-4v-57.5
			c0-24.538,19.962-44.5,44.5-44.5c24.537,0,44.5,19.962,44.5,44.5V112.109z"/>
	</g>
	<g>
		<rect x="20.482" y="79.008" fill="#2C2C2C" width="87.035" height="4"/>
	</g>
	<g>
		<rect x="20.482" y="89.008" fill="#2C2C2C" width="87.035" height="4"/>
	</g>
	<g>
		<rect x="20.482" y="99.008" fill="#2C2C2C" width="87.035" height="4"/>
	</g>
	<g>
		<path fill="#2C2C2C" stroke="#000000" stroke-width="4" stroke-miterlimit="10" d="M114.561,57.008"/>
	</g>
	<g>
		<path fill="#2C2C2C" stroke="#000000" stroke-width="4" stroke-miterlimit="10" d="M3.439,57.008"/>
	</g>
	<g>
		
			<rect x="25.524" y="39.698" transform="matrix(0.866 0.5 -0.5 0.866 27.0314 -17.4849)" fill="#2C2C2C" width="41.238" height="4"/>
	</g>
	<g>
		
			<rect x="33.709" y="32.52" transform="matrix(0.5 0.866 -0.866 0.5 56.8481 -29.4214)" fill="#2C2C2C" width="40.387" height="4"/>
	</g>
	<g>
		<rect x="62" y="12.109" fill="#2C2C2C" width="4" height="39.898"/>
	</g>
	<g>
		
			<rect x="72.179" y="14.018" transform="matrix(0.866 0.5 -0.5 0.866 27.1285 -32.4852)" fill="#2C2C2C" width="4" height="40.717"/>
	</g>
	<g>
		
			<rect x="79.762" y="21.243" transform="matrix(0.5 0.866 -0.866 0.5 77.0373 -49.9311)" fill="#2C2C2C" width="4" height="41.021"/>
	</g>
	<g>
		<path fill="#2C2C2C" stroke="#000000" stroke-width="4" stroke-miterlimit="10" d="M130.295,120.995"/>
	</g>
	<g>
		<rect x="20.963" y="50.008" fill="#2C2C2C" width="86.074" height="4"/>
	</g>
</g>
</svg>
