<?xml version="1.0" encoding="utf-8"?>
<!-- Generator: Adobe Illustrator 16.0.0, SVG Export Plug-In . SVG Version: 6.00 Build 0)  -->
<!DOCTYPE svg PUBLIC "-//W3C//DTD SVG 1.1//EN" "http://www.w3.org/Graphics/SVG/1.1/DTD/svg11.dtd">
<svg version="1.1" id="Capa_1" xmlns="http://www.w3.org/2000/svg" xmlns:xlink="http://www.w3.org/1999/xlink" x="0px" y="0px"
	 width="594.863px" height="595.282px" viewBox="0.209 123.304 594.863 595.282"
	 enable-background="new 0.209 123.304 594.863 595.282" xml:space="preserve">
<g>
	<g>
		<path fill="#2B2B38" d="M122.703,544.254c-28.833,0-52.289,23.456-52.289,52.289s23.457,52.289,52.289,52.289
			c28.833,0,52.29-23.456,52.29-52.289C174.993,567.711,151.536,544.254,122.703,544.254z M122.703,613.973
			c-9.61,0-17.429-7.819-17.429-17.43s7.819-17.43,17.429-17.43c9.611,0,17.43,7.819,17.43,17.43
			C140.133,606.153,132.314,613.973,122.703,613.973z"/>
	</g>
</g>
<g>
	<g>
		<path fill="#2B2B38" d="M510.052,559.245c-20.389-20.388-53.561-20.389-73.949,0c-20.387,20.387-20.387,53.56,0,73.947
			c20.387,20.387,53.561,20.388,73.949,0C530.439,612.804,530.439,579.632,510.052,559.245z M485.402,608.543
			c-6.789,6.788-17.863,6.787-24.652,0c-6.793-6.796-6.793-17.854,0.002-24.65c6.789-6.788,17.861-6.788,24.65,0
			C492.199,590.69,492.199,601.748,485.402,608.543z"/>
	</g>
</g>
<g>
	<g>
		<path fill="#2B2B38" d="M451.689,476.092l-53.516-54.633l56.117-55.591c38.625,6.073,77.256-6.496,105.059-34.298
			c36.506-36.505,46.088-92.315,23.846-138.878c-5.184-10.85-19.561-13.304-28.053-4.813l-51.633,51.637
			c-12.334-2.585-22.068-12.32-24.652-24.651l51.635-51.633c8.5-8.501,6.027-22.874-4.813-28.053
			c-46.561-22.239-102.369-12.657-138.875,23.847c-29.094,29.094-41.375,70.578-33.27,110.399l-55.458,54.935l-56.858-52.284
			c9.19-40.69-2.888-83.15-32.786-113.051c-47.57-47.57-124.975-47.57-172.545,0c-47.57,47.57-47.57,124.976,0,172.547
			c28.267,28.269,68.965,40.918,108.332,33.731c10.494,9.581,32.376,29.813,57.498,54.503l-57.24,56.701
			c-16.016-2.927-32.291-2.604-48.518,0.972c-47.195,10.4-84.655,49.146-93.211,96.41
			c-15.217,84.059,57.094,158.973,143.884,142.373c49.098-9.39,88.8-50.574,96.551-100.153c2.151-13.763,2.044-27.443-0.311-40.8
			l57.415-56.878c23.307,23.902,42.934,45.593,52.721,56.079c-7.014,39.073,5.488,79.67,33.797,107.979
			c47.57,47.568,124.975,47.571,172.545,0s47.57-124.976,0-172.547C531.119,481.713,490.669,469.203,451.689,476.092z
			 M160.865,333.344c-4.381-3.92-10.442-5.368-16.122-3.852c-30.008,8.013-62.275-0.634-84.208-22.566
			c-33.98-33.982-33.98-89.271-0.001-123.25c33.979-33.979,89.267-33.979,123.248,0c23.26,23.261,31.422,57.174,21.299,88.507
			c-1.829,5.66-0.646,11.863,3.142,16.452c2.436,2.952-1.543-0.959,65.06,60.285l-46.797,46.355
			C190.686,360.077,161.192,333.635,160.865,333.344z M211.712,557.112c-0.081,0.077-0.161,0.156-0.24,0.235l-0.279,0.278
			c-5.338,5.338-6.491,13.28-3.453,19.742c2.433,10.829,2.771,22.035,1.001,33.359c-5.519,35.303-33.751,64.622-68.657,71.297
			c-61.492,11.762-114.15-40.52-103.034-101.925c5.988-33.081,33.297-61.28,66.411-68.577c13.792-3.04,27.923-2.88,41.968,0.909
			c5.995,1.615,12.395-0.077,16.805-4.446l222.864-220.761c4.563-4.52,6.27-11.179,4.445-17.335
			c-9.066-30.596-0.674-63.63,21.91-86.214c19.715-19.713,47.297-28.438,73.959-24.659l-36.986,36.985
			c-3.268,3.268-5.105,7.701-5.105,12.325c0,36.796,29.936,66.729,66.73,66.729c4.625,0,9.057-1.836,12.326-5.105l36.984-36.985
			c3.775,26.658-4.949,54.247-24.662,73.959c-21.611,21.611-52.281,30.251-82.043,23.111c-5.865-1.407-12.049,0.32-16.336,4.568
			C436.32,334.604,216.179,552.684,211.712,557.112z M534.701,657.843c-33.979,33.979-89.266,33.979-123.246,0
			c-21.934-21.933-30.58-54.199-22.566-84.208c1.604-6.01-0.115-12.419-4.512-16.818c-0.092-0.091-42.68-45.842-59.326-62.915
			l48.359-47.906l60.135,61.391c4.398,4.49,10.875,6.266,16.949,4.644c30.006-8.015,62.273,0.634,84.207,22.566
			C568.679,568.575,568.679,623.864,534.701,657.843z"/>
	</g>
</g>
<g>
	<g>
		<path fill="#2B2B38" d="M159.133,208.324c-20.388-20.387-53.56-20.387-73.948,0c-20.387,20.389-20.387,53.562,0,73.948
			c20.387,20.388,53.56,20.389,73.948,0C179.52,261.885,179.52,228.713,159.133,208.324z M134.482,257.623
			c-6.797,6.796-17.854,6.796-24.651,0c-6.794-6.795-6.794-17.854,0.001-24.649c6.798-6.795,17.855-6.797,24.65,0
			C141.279,239.77,141.279,250.829,134.482,257.623z"/>
	</g>
</g>
</svg>
