<?xml version="1.0" encoding="utf-8"?>
<!-- Generator: Adobe Illustrator 16.0.0, SVG Export Plug-In . SVG Version: 6.00 Build 0)  -->
<!DOCTYPE svg PUBLIC "-//W3C//DTD SVG 1.1//EN" "http://www.w3.org/Graphics/SVG/1.1/DTD/svg11.dtd">
<svg version="1.1" id="Шар_1" xmlns="http://www.w3.org/2000/svg" xmlns:xlink="http://www.w3.org/1999/xlink" x="0px" y="0px"
	 width="132.009px" height="132.001px" viewBox="0 0 132.009 132.001" enable-background="new 0 0 132.009 132.001"
	 xml:space="preserve">
<g>
	<rect x="12.667" y="69.083" fill="#2C2C2C" width="104" height="4"/>
</g>
<g>
	<g>
		<rect x="12.505" y="11" fill="#2C2C2C" width="4" height="109.001"/>
	</g>
</g>
<g>
	<g>
		<rect x="115.505" y="11" fill="#2C2C2C" width="4" height="109.001"/>
	</g>
</g>
<g>
	<g>
		<path fill="#2C2C2C" d="M130.005,123.001h-128c-1.104,0-2-0.896-2-2s0.896-2,2-2h128c1.104,0,2,0.896,2,2
			S131.109,123.001,130.005,123.001z"/>
	</g>
</g>
<g>
	<g>
		<path fill="#2C2C2C" d="M125.509,14H6.5C2.916,14,0,10.885,0,7.056V6.944C0,3.115,2.916,0,6.5,0h119.009
			c3.584,0,6.5,3.115,6.5,6.944v0.111C132.009,10.885,129.093,14,125.509,14z M6.5,4C5.145,4,4,5.348,4,6.944v0.111
			C4,8.652,5.145,10,6.5,10h119.009c1.355,0,2.5-1.348,2.5-2.944V6.944c0-1.596-1.145-2.944-2.5-2.944H6.5z"/>
	</g>
</g>
<g>
	<g>
		<path fill="#2C2C2C" d="M123.005,132.001h-114c-3.309,0-6-2.691-6-6v-4h4v4c0,1.103,0.897,2,2,2h114c1.103,0,2-0.897,2-2v-4h4v4
			C129.005,129.31,126.313,132.001,123.005,132.001z"/>
	</g>
</g>
<g>
	<g>
		<path fill="#2C2C2C" stroke="#000000" stroke-width="4" stroke-miterlimit="10" d="M108.505,10.101"/>
	</g>
</g>
<g>
	<g>
		<path fill="#2C2C2C" d="M107.505,114.103h-83c-1.654,0-3-1.346-3-3v-39h4v38h81v-38h4v39
			C110.505,112.757,109.159,114.103,107.505,114.103z"/>
	</g>
</g>
<g>
	<g>
		<path fill="#2C2C2C" d="M128,92.001h-2c-2.206,0-4-1.794-4-4V11h4v77.001h2V7h4v81.001C132,90.207,130.206,92.001,128,92.001z"/>
	</g>
</g>
</svg>
