<?xml version="1.0" encoding="utf-8"?>
<!-- Generator: Adobe Illustrator 16.0.0, SVG Export Plug-In . SVG Version: 6.00 Build 0)  -->
<!DOCTYPE svg PUBLIC "-//W3C//DTD SVG 1.1//EN" "http://www.w3.org/Graphics/SVG/1.1/DTD/svg11.dtd">
<svg version="1.1" id="Шар_1" xmlns="http://www.w3.org/2000/svg" xmlns:xlink="http://www.w3.org/1999/xlink" x="0px" y="0px"
	 width="131.999px" height="112.112px" viewBox="0 0 131.999 112.112" enable-background="new 0 0 131.999 112.112"
	 xml:space="preserve">
<g>
	<g>
		<rect x="6.606" y="19.112" fill="#2C2C2C" width="119" height="4"/>
	</g>
	<g>
		<rect x="15.576" y="29.112" fill="#2C2C2C" width="101.061" height="4"/>
	</g>
	<g>
		<rect x="15.576" y="29.112" fill="#2C2C2C" width="101.061" height="4"/>
	</g>
	<g>
		<rect x="15.576" y="39.112" fill="#2C2C2C" width="101.061" height="4"/>
	</g>
	<g>
		<rect x="15.576" y="49.112" fill="#2C2C2C" width="101.061" height="4"/>
	</g>
	<g>
		<rect x="15.576" y="59.112" fill="#2C2C2C" width="101.061" height="4"/>
	</g>
	<g>
		<rect x="15.576" y="69.112" fill="#2C2C2C" width="101.061" height="4"/>
	</g>
	<g>
		<path fill="#2C2C2C" d="M73.536,79.112H58.462c-1.654,0-3-1.346-3-3v-4c0-1.654,1.346-3,3-3h15.074c1.654,0,3,1.346,3,3v4
			C76.536,77.767,75.19,79.112,73.536,79.112z M59.462,75.112h13.074v-2H59.462V75.112z"/>
	</g>
	<g>
		<path fill="#2C2C2C" d="M127.003,100h-4V6c0-1.103-0.897-2-2-2H10.995c-1.103,0-2,0.897-2,2v94h-4V6c0-3.309,2.691-6,6-6h110.008
			c3.309,0,6,2.691,6,6V100z"/>
	</g>
	<g>
		<path fill="#2C2C2C" d="M127.999,112.112H4c-2.206,0-4-1.794-4-4v-5c0-2.206,1.794-4,4-4h123.999c2.206,0,4,1.794,4,4v5
			C131.999,110.318,130.205,112.112,127.999,112.112z M127.999,108.112v2V108.112L127.999,108.112L127.999,108.112z M4,103.112v5
			h123.993l0.006-5H4z"/>
	</g>
	<g>
		<path fill="#2C2C2C" stroke="#000000" stroke-width="4" stroke-miterlimit="10" d="M108.499,7.212"/>
	</g>
	<g>
		<rect x="13.999" y="19.898" fill="#2C2C2C" width="4" height="80.012"/>
	</g>
	<g>
		<rect x="113.999" y="19.898" fill="#2C2C2C" width="4" height="80.012"/>
	</g>
</g>
</svg>
