<?xml version="1.0" encoding="utf-8"?>
<!-- Generator: Adobe Illustrator 16.0.0, SVG Export Plug-In . SVG Version: 6.00 Build 0)  -->
<!DOCTYPE svg PUBLIC "-//W3C//DTD SVG 1.1//EN" "http://www.w3.org/Graphics/SVG/1.1/DTD/svg11.dtd">
<svg version="1.1" id="Шар_1" xmlns="http://www.w3.org/2000/svg" xmlns:xlink="http://www.w3.org/1999/xlink" x="0px" y="0px"
	 width="564.498px" height="595.237px" viewBox="15.385 123.255 564.498 595.237"
	 enable-background="new 15.385 123.255 564.498 595.237" xml:space="preserve">
<g>
	<path fill="#FFFFFF" d="M431.13,477.455c-0.07,0-17.26-14.51-25.67-20.46c-7.96-5.95-20.61-13.76-27.681-17.479
		c-12.649-7.07-25.6-2.61-30.88,4.46l-11.16,14.14c-5.689,7.07-16.22,6.1-16.22,6.1c-77.39-19.72-98.22-98.04-98.22-98.04
		s-0.86-10.56,6.21-16.22l14.03-11.16c6.88-5.36,11.34-18.3,4.27-30.95c-3.98-7.07-11.79-19.72-17.63-27.65
		c-6.18-8.41-20.5-25.59-20.58-25.67c-4.2-4.98-9.6-7.7-15.62-7.7l0.07-0.3h-0.37c-3.72,0-7.81,1.12-11.91,3.35
		c-10.12,5.66-19.6,13.47-28.42,23.14h-0.11c-6.66,8.19-10.61,16-11.35,23.44c0,0.86-0.37,1.97,0,3.46
		c-0.37,3.35,0.37,6.7,1.49,10.05h0.37c3.35,11.9,11.91,31.62,30.14,64.36c11.9,21.4,23.81,39.22,35.71,54.32
		c6.33,7.93,13.4,16.109,21.58,24.3l0.75,0.74l0.74,0.74l1.9,0.71c8.18,8.189,16.37,15.26,24.18,21.579
		c15.26,12.28,33.11,24.181,54.32,36.091c32.74,18.229,52.46,26.79,64.36,30.14v0.37c3.35,0.74,6.7,1.49,10.05,1.49
		c1.49,0.37,2.61,0,3.351,0c7.81-0.75,15.63-4.471,23.439-11.17h0.18c9.75-8.931,17.421-18.23,23.15-28.271v-0.37
		C441.18,494.575,439.32,484.155,431.13,477.455z M431.13,477.455c-0.07,0-17.26-14.51-25.67-20.46
		c-7.96-5.95-20.61-13.76-27.681-17.479c-12.649-7.07-25.6-2.61-30.88,4.46l-11.16,14.14c-5.689,7.07-16.22,6.1-16.22,6.1
		c-77.39-19.72-98.22-98.04-98.22-98.04s-0.86-10.56,6.21-16.22l14.03-11.16c6.88-5.36,11.34-18.3,4.27-30.95
		c-3.98-7.07-11.79-19.72-17.63-27.65c-6.18-8.41-20.5-25.59-20.58-25.67c-4.2-4.98-9.6-7.7-15.62-7.7l0.07-0.3h-0.37
		c-3.72,0-7.81,1.12-11.91,3.35c-10.12,5.66-19.6,13.47-28.42,23.14h-0.11c-6.66,8.19-10.61,16-11.35,23.44c0,0.86-0.37,1.97,0,3.46
		c-0.37,3.35,0.37,6.7,1.49,10.05h0.37c3.35,11.9,11.91,31.62,30.14,64.36c11.9,21.4,23.81,39.22,35.71,54.32
		c6.33,7.93,13.4,16.109,21.58,24.3l0.75,0.74l0.74,0.74l1.9,0.71c8.18,8.189,16.37,15.26,24.18,21.579
		c15.26,12.28,33.11,24.181,54.32,36.091c32.74,18.229,52.46,26.79,64.36,30.14v0.37c3.35,0.74,6.7,1.49,10.05,1.49
		c1.49,0.37,2.61,0,3.351,0c7.81-0.75,15.63-4.471,23.439-11.17h0.18c9.75-8.931,17.421-18.23,23.15-28.271v-0.37
		C441.18,494.575,439.32,484.155,431.13,477.455z M516.18,181.235v0.11c-14.81-13.62-74.56-57.04-207.75-57.67
		c0,0-157.01-9.41-233.54,60.8c-42.6,42.63-57.59,104.91-59.15,182.3c-1.6,77.24-3.65,222.11,136.06,261.4h0.11l-0.11,59.979
		c0,0-0.86,24.25,15.1,29.2c19.35,5.96,30.66-12.5,49.11-32.37c10.16-10.9,24.11-26.93,34.68-39.21
		c95.5,8.04,168.98-10.311,177.32-13.021c19.27-6.329,128.35-20.239,146.14-165.119C592.45,318.255,565.291,223.835,516.18,181.235z
		 M532.371,456.955c-15.261,120.92-103.811,128.62-119.801,133.83c-7.069,2.23-71.81,18.311-152.92,13.021
		c0,0-60.64,72.93-79.24,91.899c-2.98,2.98-6.7,4.09-8.93,3.57c-3.35-0.74-4.09-4.46-4.09-10.04l0.37-99.34
		c-118.31-33.11-111.25-156.26-109.76-221c1.12-64.36,13.4-117.2,49.49-152.91c64.77-58.82,198.34-49.89,198.34-49.89
		c112.649,0.37,166.67,34.34,179.14,45.76c41.52,35.53,62.689,120.65,47.25,245.37L532.371,456.955z M431.13,477.455
		c-0.07,0-17.26-14.51-25.67-20.46c-7.96-5.95-20.61-13.76-27.681-17.479c-12.649-7.07-25.6-2.61-30.88,4.46l-11.16,14.14
		c-5.689,7.07-16.22,6.1-16.22,6.1c-77.39-19.72-98.22-98.04-98.22-98.04s-0.86-10.56,6.21-16.22l14.03-11.16
		c6.88-5.36,11.34-18.3,4.27-30.95c-3.98-7.07-11.79-19.72-17.63-27.65c-6.18-8.41-20.5-25.59-20.58-25.67
		c-4.2-4.98-9.6-7.7-15.62-7.7l0.07-0.3h-0.37c-3.72,0-7.81,1.12-11.91,3.35c-10.12,5.66-19.6,13.47-28.42,23.14h-0.11
		c-6.66,8.19-10.61,16-11.35,23.44c0,0.86-0.37,1.97,0,3.46c-0.37,3.35,0.37,6.7,1.49,10.05h0.37c3.35,11.9,11.91,31.62,30.14,64.36
		c11.9,21.4,23.81,39.22,35.71,54.32c6.33,7.93,13.4,16.109,21.58,24.3l0.75,0.74l0.74,0.74l1.9,0.71
		c8.18,8.189,16.37,15.26,24.18,21.579c15.26,12.28,33.11,24.181,54.32,36.091c32.74,18.229,52.46,26.79,64.36,30.14v0.37
		c3.35,0.74,6.7,1.49,10.05,1.49c1.49,0.37,2.61,0,3.351,0c7.81-0.75,15.63-4.471,23.439-11.17h0.18
		c9.75-8.931,17.421-18.23,23.15-28.271v-0.37C441.18,494.575,439.32,484.155,431.13,477.455z"/>
	<path fill="#7B519C" d="M484.97,211.855c-12.47-11.42-66.49-45.39-179.14-45.76c0,0-133.57-8.93-198.34,49.89
		c-36.09,35.71-48.37,88.55-49.49,152.91c-1.49,64.74-8.55,187.89,109.76,221l-0.37,99.34c0,5.58,0.74,9.3,4.09,10.04
		c2.23,0.52,5.95-0.59,8.93-3.57c18.6-18.97,79.24-91.899,79.24-91.899c81.11,5.29,145.851-10.79,152.92-13.021
		c15.99-5.21,104.54-12.91,119.801-133.83l-0.15,0.271C547.66,332.505,526.49,247.385,484.97,211.855z M435.6,504.995v0.37
		c-5.729,10.04-13.4,19.34-23.15,28.271h-0.18c-7.81,6.699-15.63,10.42-23.439,11.17c-0.74,0-1.86,0.37-3.351,0
		c-3.35,0-6.7-0.75-10.05-1.49v-0.37c-11.9-3.35-31.62-11.91-64.36-30.14c-21.209-11.91-39.06-23.811-54.32-36.091
		c-7.81-6.319-16-13.39-24.18-21.579l-1.9-0.71l-0.74-0.74l-0.75-0.74c-8.18-8.19-15.25-16.37-21.58-24.3
		c-11.9-15.1-23.81-32.92-35.71-54.32c-18.23-32.74-26.79-52.46-30.14-64.36h-0.37c-1.12-3.35-1.86-6.7-1.49-10.05
		c-0.37-1.49,0-2.6,0-3.46c0.74-7.44,4.69-15.25,11.35-23.44h0.11c8.82-9.67,18.3-17.48,28.42-23.14c4.1-2.23,8.19-3.35,11.91-3.35
		h0.37l-0.07,0.3c6.02,0,11.42,2.72,15.62,7.7c0.08,0.08,14.4,17.26,20.58,25.67c5.84,7.93,13.65,20.58,17.63,27.65
		c7.07,12.65,2.61,25.59-4.27,30.95l-14.03,11.16c-7.07,5.66-6.21,16.22-6.21,16.22s20.83,78.32,98.22,98.04
		c0,0,10.53,0.971,16.22-6.1l11.16-14.14c5.28-7.07,18.23-11.53,30.88-4.46c7.07,3.72,19.721,11.529,27.681,17.479
		c8.41,5.95,25.6,20.46,25.67,20.46C439.32,484.155,441.18,494.575,435.6,504.995z"/>
	<g>
		<path fill="#FFFFFF" d="M359.665,379.726c-4.971,0-9-4.029-9-9c0-21.524-17.511-39.035-39.034-39.035c-4.971,0-9-4.029-9-9
			s4.029-9,9-9c31.449,0,57.034,25.585,57.034,57.035C368.665,375.697,364.635,379.726,359.665,379.726z"/>
	</g>
	<g>
		<path fill="#FFFFFF" d="M399.927,381.321c-4.971,0-9-4.029-9-9c0-47.311-38.49-85.801-85.801-85.801c-4.971,0-9-4.029-9-9
			s4.029-9,9-9c57.236,0,103.801,46.565,103.801,103.801C408.927,377.292,404.898,381.321,399.927,381.321z"/>
	</g>
	<g>
		<path fill="#FFFFFF" d="M446.307,395.655c-4.971,0-9-4.029-9-9c0-77.013-62.654-139.667-139.667-139.667c-4.971,0-9-4.029-9-9
			s4.029-9,9-9c86.938,0,157.667,70.729,157.667,157.667C455.307,391.625,451.278,395.655,446.307,395.655z"/>
	</g>
</g>
</svg>
