<?xml version="1.0" encoding="utf-8"?>
<!-- Generator: Adobe Illustrator 16.0.0, SVG Export Plug-In . SVG Version: 6.00 Build 0)  -->
<!DOCTYPE svg PUBLIC "-//W3C//DTD SVG 1.1//EN" "http://www.w3.org/Graphics/SVG/1.1/DTD/svg11.dtd">
<svg version="1.1" id="Шар_1" xmlns="http://www.w3.org/2000/svg" xmlns:xlink="http://www.w3.org/1999/xlink" x="0px" y="0px"
	 width="130.008px" height="132.112px" viewBox="0 0 130.008 132.112" enable-background="new 0 0 130.008 132.112"
	 xml:space="preserve">
<g>
	<g>
		<path fill="#2C2C2C" stroke="#000000" stroke-width="4" stroke-miterlimit="10" d="M67.504,31.255"/>
	</g>
	<g>
		<path fill="#2C2C2C" stroke="#000000" stroke-width="4" stroke-miterlimit="10" d="M67.507,47.921"/>
	</g>
	<g>
		<path fill="#2C2C2C" d="M81.504,100.155h-4V26.147c0-1.103-0.897-2-2-2h-62c-1.103,0-2,0.897-2,2v74.008h-4V26.147
			c0-3.309,2.691-6,6-6h62c3.309,0,6,2.691,6,6V100.155z"/>
	</g>
	<g>
		<path fill="#2C2C2C" d="M87.008,103.155H2c-1.104,0-2-0.896-2-2s0.896-2,2-2h85.008c1.104,0,2,0.896,2,2
			S88.112,103.155,87.008,103.155z"/>
	</g>
	<g>
		<path fill="#2C2C2C" d="M79.004,112.155h-69c-3.309,0-6-2.691-6-6v-4h4v4c0,1.103,0.897,2,2,2h69c1.103,0,2-0.897,2-2v-4h4v4
			C85.004,109.464,82.313,112.155,79.004,112.155z"/>
	</g>
	<g>
		<path fill="#2C2C2C" stroke="#000000" stroke-width="4" stroke-miterlimit="10" d="M21.504,31.255"/>
	</g>
	<g>
		<path fill="#2C2C2C" d="M69.504,94.155h-50c-1.654,0-3-1.346-3-3v-59c0-1.654,1.346-3,3-3h50c1.654,0,3,1.346,3,3v59
			C72.504,92.81,71.158,94.155,69.504,94.155z M20.504,90.155h48v-57h-48V90.155z"/>
	</g>
	<g>
		<path fill="#2C2C2C" stroke="#000000" stroke-width="4" stroke-miterlimit="10" d="M21.501,47.921"/>
	</g>
	<g>
		<rect x="79.175" y="78.843" fill="#2C2C2C" width="37.185" height="4"/>
	</g>
	<g>
		<path fill="#2C2C2C" stroke="#000000" stroke-width="4" stroke-miterlimit="10" d="M115.069,78.718"/>
	</g>
	<g>
		<path fill="#2C2C2C" d="M115.069,73.112h-8c-1.654,0-3-1.346-3-3v-16c0-1.654,1.346-3,3-3h8v4h-7v14h7V73.112z"/>
	</g>
	<g>
		<rect x="42.504" y="108.446" fill="#2C2C2C" width="4" height="11.554"/>
	</g>
	<g>
		<path fill="#2C2C2C" stroke="#000000" stroke-width="4" stroke-miterlimit="10" d="M44.504,99.446"/>
	</g>
	<g>
		<path fill="#2C2C2C" d="M125.504,120h-4V6c0-1.103-0.897-2-2-2h-71c-1.103,0-2,0.897-2,2v15.046h-4V6c0-3.309,2.691-6,6-6h71
			c3.309,0,6,2.691,6,6V120z"/>
	</g>
	<g>
		<path fill="#2C2C2C" d="M126.008,132.112h-84c-2.206,0-4-1.794-4-4v-5c0-2.206,1.794-4,4-4h84c2.206,0,4,1.794,4,4v5
			C130.008,130.318,128.214,132.112,126.008,132.112z M126.008,128.112v2V128.112L126.008,128.112L126.008,128.112z M42.008,123.112
			v5h83.994l0.006-5H42.008z"/>
	</g>
	<g>
		<rect x="51.007" y="108.446" fill="#2C2C2C" width="4" height="11.464"/>
	</g>
	<g>
		<path fill="#2C2C2C" stroke="#000000" stroke-width="4" stroke-miterlimit="10" d="M53.007,108.446"/>
	</g>
	<g>
		<path fill="#2C2C2C" stroke="#000000" stroke-width="4" stroke-miterlimit="10" d="M53.007,90.548"/>
	</g>
	<g>
		<path fill="#2C2C2C" d="M117.007,119.91h-4v-107h-58v8.125h-4V11.91c0-1.654,1.346-3,3-3h60c1.654,0,3,1.346,3,3V119.91z"/>
	</g>
</g>
</svg>
